<?xml version="1.0" encoding="UTF-8" standalone="no"?>
<!-- Created with Inkscape (http://www.inkscape.org/) -->

<svg
   xmlns:dc="http://purl.org/dc/elements/1.1/"
   xmlns:cc="http://creativecommons.org/ns#"
   xmlns:rdf="http://www.w3.org/1999/02/22-rdf-syntax-ns#"
   xmlns:svg="http://www.w3.org/2000/svg"
   xmlns="http://www.w3.org/2000/svg"
   xmlns:sodipodi="http://sodipodi.sourceforge.net/DTD/sodipodi-0.dtd"
   xmlns:inkscape="http://www.inkscape.org/namespaces/inkscape"
   id="svg2"
   version="1.1"
   inkscape:version="0.91 r13725"
   width="350"
   height="600"
   viewBox="0 0 350 600"
   sodipodi:docname="antique pending light.svg">
  <metadata
     id="metadata8">
    <rdf:RDF>
      <cc:Work
         rdf:about="">
        <dc:format>image/svg+xml</dc:format>
        <dc:type
           rdf:resource="http://purl.org/dc/dcmitype/StillImage" />
        <dc:title></dc:title>
      </cc:Work>
    </rdf:RDF>
  </metadata>
  <defs
     id="defs6" />
  <sodipodi:namedview
     pagecolor="#ffffff"
     bordercolor="#666666"
     borderopacity="1"
     objecttolerance="10"
     gridtolerance="10"
     guidetolerance="10"
     inkscape:pageopacity="0"
     inkscape:pageshadow="2"
     inkscape:window-width="1467"
     inkscape:window-height="785"
     id="namedview4"
     showgrid="false"
     inkscape:zoom="0.27661827"
     inkscape:cx="480.75022"
     inkscape:cy="323.75431"
     inkscape:window-x="328"
     inkscape:window-y="109"
     inkscape:window-maximized="0"
     inkscape:current-layer="svg2" />
  <g
     id="g4164"
     transform="matrix(0.60755127,0,0,0.60755127,-124.79132,-162.81332)">
    <g
       transform="matrix(2.3569489,0,0,2.3569489,-1120.3213,299.59332)"
       id="g4138">
      <path
         inkscape:connector-curvature="0"
         id="path4152"
         d="m 679.54724,387.80618 c -10.35172,-1.36494 -15.57455,-3.64519 -23.483,-10.25251 l -3.91265,-3.26893 -16.3258,-0.54822 c -16.41104,-0.55108 -25.22306,-1.92414 -36.32579,-5.66017 -14.75901,-4.96635 -21.29702,-8.39198 -22.07493,-11.56627 -0.27093,-1.10555 0.4226,-3.79273 1.54117,-5.97152 1.11857,-2.17879 2.03376,-4.67175 2.03376,-5.5399 0,-6.03233 5.79461,-21.65192 10.01606,-26.99866 4.71315,-5.96951 22.33862,-17.54354 40.71019,-26.73294 9.43446,-4.71908 12.08993,-6.59299 16.63749,-11.74073 5.82137,-6.58968 6.07896,-7.32379 9.13211,-26.02633 1.85431,-11.35884 1.87772,-10.76325 -0.53243,-13.54218 -2.11981,-2.44416 -2.08613,-3.93432 0.27557,-12.19171 1.49901,-5.24111 3.42113,-6.59811 12.36373,-8.72867 4.31245,-1.02744 8.02056,-2.40727 8.24023,-3.0663 0.21968,-0.65903 1.2146,-1.89622 2.21094,-2.74931 1.69593,-1.4521 1.77505,-3.37518 1.23991,-30.13645 -0.38938,-19.47177 -0.0112,-42.60501 1.18627,-72.55876 0.96684,-24.185362 1.53702,-46.724991 1.26706,-50.088067 -0.32664,-4.069216 -0.0438,-6.921517 0.84559,-8.526618 1.6098,-2.905348 1.8041,-9.301947 0.36427,-11.992297 -0.75905,-1.418292 -0.60321,-3.702534 0.57241,-8.390166 1.37959,-5.500967 1.44699,-7.851894 0.46169,-16.104068 -1.35996,-11.3901594 -0.44758,-13.7671374 3.52454,-9.1823377 2.35367,2.7167001 2.37185,2.9137444 1.89193,20.4999997 C 691.14105,36.50938 690.39507,49.675 689.74984,56 c -0.64523,6.325 -1.24294,14.425 -1.32825,18 -0.0853,3.575 -0.46885,8.3 -0.85233,10.5 -0.44357,2.544744 -0.17612,5.687318 0.73513,8.637859 1.0572,3.42307 1.19932,6.042357 0.5426,10.000001 -0.48938,2.94918 -0.89967,8.51214 -0.91177,12.36214 -0.0452,14.36865 -0.62457,28.10977 -1.32824,31.5 -0.53911,2.59742 -0.17695,4.73909 1.40437,8.30492 1.9089,4.30447 2.00878,5.34599 0.95905,10 -2.01466,8.93199 -1.96638,12.94993 0.25164,20.94339 2.05184,7.39456 2.07302,7.90973 0.46398,11.28393 -0.92731,1.94459 -1.68387,5.65785 -1.68124,8.25169 0.004,3.97926 0.54288,5.30194 3.44901,8.46607 1.89434,2.0625 4.12004,3.75 4.94601,3.75 3.57337,0 11.74451,2.29724 13.62451,3.8304 1.13366,0.92451 2.73628,4.31849 3.59115,7.60522 1.52716,5.87146 1.51901,5.95435 -0.75446,7.66923 l -2.29831,1.73362 2.31063,17.30115 2.31063,17.30114 4.82294,5.5672 c 3.82284,4.41276 6.2403,6.14293 11.65803,8.34365 15.40253,6.2566 35.57916,19.6803 45.09106,29.99949 5.18671,5.62691 8.69391,12.50674 10.85283,21.28925 0.92743,3.77281 2.29486,8.0748 3.03872,9.55999 0.74386,1.48519 1.35247,4.51358 1.35247,6.72977 0,3.80884 -0.28742,4.19559 -5.25,7.06446 -5.94056,3.43423 -10.55578,4.8359 -26.25,7.97226 -23.14282,4.6249 -48.98065,6.55015 -50.06273,3.7303 -0.27497,-0.71657 0.19519,-2.96657 1.04481,-5 2.88235,-6.89843 -0.41782,-3.78055 -4.41661,4.17266 -3.18264,6.32996 -4.88152,8.48227 -8.68261,11 -2.59916,1.72162 -4.9861,3.14095 -5.3043,3.15407 -0.31821,0.0131 -2.15356,0.37111 -4.07856,0.79554 -1.925,0.42442 -6.17874,0.41848 -9.45276,-0.0132 z m 8.28209,-10.15848 c 0.25442,-1.32108 -0.15595,-1.73145 -1.47703,-1.47703 -1.00613,0.19376 -1.98787,1.1755 -2.18163,2.18163 -0.25442,1.32108 0.15595,1.73145 1.47703,1.47703 1.00613,-0.19376 1.98787,-1.1755 2.18163,-2.18163 z M 677,377.60699 C 677,376.29673 674.9697,375 672.91821,375 c -1.37896,0 -1.10479,2.75805 0.33179,3.33772 2.3348,0.94211 3.75,0.66634 3.75,-0.73073 z m 10.2152,-8.45989 c 1.80664,-1.5691 4.6348,-3.3012 6.2848,-3.84912 2.61,-0.86671 2.95857,-1.41041 2.68132,-4.18228 -0.17528,-1.75233 0.34729,-5.30773 1.16125,-7.90088 3.13037,-9.97282 3.14993,-9.85338 -1.81812,-11.10435 -5.41489,-1.36348 -15.16008,-1.34906 -22.33381,0.0331 -7.0823,1.3645 -8.16066,3.54692 -5.85329,11.84606 0.91446,3.28912 1.66265,6.8019 1.66265,7.80616 0,1.00427 2.03705,3.71106 4.52677,6.0151 5.5344,5.12163 8.94649,5.45472 13.68843,1.33626 z"
         style="fill:#eed4a8" />
      <path
         inkscape:connector-curvature="0"
         id="path4150"
         d="M 620.94883,371.50507 C 610.52436,370.06494 596.5208,366.06773 591,362.95641 l -3.5,-1.97247 4,0.55937 c 2.2,0.30766 6.025,1.09428 8.5,1.74805 2.475,0.65377 9.45,1.19316 15.5,1.19866 l 11,0.01 -0.27126,-6.74081 c -0.14919,-3.70744 -0.69471,-7.8546 -1.21228,-9.21589 -0.90505,-2.38048 -1.20051,-2.45402 -7.72874,-1.92384 -6.82597,0.55436 -20.42193,3.49894 -25.53772,5.5309 -1.5125,0.60075 -2.75,1.71269 -2.75,2.47096 0,0.8652 -1.11733,1.37868 -3,1.37868 -3.19571,0 -3.74521,0.85479 -1.8,2.8 1.52454,1.52454 0.60718,1.5249 -2.73725,10e-4 -3.02926,-1.38022 -3.08328,-0.71353 1.40189,-17.30107 3.54737,-13.11928 6.22853,-19.39759 10.23004,-23.95505 4.37782,-4.98606 21.52751,-16.06616 36.90532,-23.84385 11.74761,-5.94163 14.25234,-7.65859 19.29581,-13.22709 l 5.79581,-6.39915 2.64465,-16.02025 2.64464,-16.02025 -2.23866,-2.38294 c -2.08468,-2.21905 -2.15651,-2.71886 -1.0444,-7.26718 1.78613,-7.30491 3.59301,-10.27719 6.67034,-10.97255 11.85225,-2.67814 13.8368,-3.4746 16.52378,-6.63147 l 2.79197,-3.28022 -0.64306,-16.1285 c -0.4337,-10.87737 -0.30046,-16.34025 0.40924,-16.77887 0.6204,-0.38342 1.56474,1.10585 2.30083,3.62851 0.68669,2.35337 1.83365,4.63872 2.54879,5.07855 1.79319,1.1029 1.64031,4.70036 -0.19974,4.70036 -1.95598,0 -1.90557,0.98295 0.12661,2.46892 1.30512,0.95433 1.40395,1.60547 0.5,3.2945 -0.61963,1.15781 -1.10832,4.72218 -1.08597,7.92084 0.0592,8.4705 2.86,11.40204 13.66874,14.30675 4.51515,1.21339 8.61872,2.7243 9.11904,3.35758 0.50031,0.63327 1.47818,3.57518 2.17302,6.53756 1.1198,4.77407 1.07786,5.48997 -0.36904,6.29969 -2.15195,1.20429 -2.08402,9.30666 0.21309,25.41935 1.66386,11.67084 1.873,12.28081 5.82881,17 5.66113,6.75358 6.84612,7.62523 14.8257,10.9054 9.59257,3.94322 22.39927,11.57561 32.15231,19.16177 9.2345,7.18284 13.44784,11.64345 16.32496,17.28309 1.82282,3.57301 7.02273,20.01208 7.02273,22.20173 0,0.5245 -1.64288,0.65616 -3.75,0.30052 l -3.75,-0.63293 4.42757,3.02923 c 4.69087,3.20937 6.55087,5.56285 5.60542,7.09262 -1.59999,2.58885 -11.78895,7.04771 -19.53299,8.54798 -4.675,0.90569 -12.775,2.55131 -18,3.65692 -9.8868,2.09206 -41,3.86451 -41,2.33568 0,-0.44631 1.14381,-2.76325 2.5418,-5.14873 2.08794,-3.56281 2.65058,-6.12291 3.15106,-14.33786 0.3469,-5.69415 0.22125,-10.04875 -0.2918,-10.11239 -0.49558,-0.0615 -2.47606,-0.25838 -4.40106,-0.43755 -1.925,-0.17918 -8.47458,-0.86678 -14.55461,-1.52802 -10.9838,-1.19454 -17.32602,-1.02297 -37.44539,1.01299 -15.82341,1.60123 -15,1.19244 -15,7.44692 0,8.8111 1.70296,15.61281 4.57556,18.27505 1.41685,1.31309 2.3928,2.9398 2.16878,3.61491 -0.57891,1.74465 -19.83088,1.88545 -31.79551,0.23255 z m 62.24226,-197.18933 c -0.71942,-1.31929 -1.1974,-6.66529 -1.20701,-13.5 -0.0215,-15.26859 2.05177,-71.939085 2.70051,-73.81574 0.28519,-0.825 1.16766,0.975 1.96103,4 1.19786,4.567225 1.26905,8.722313 0.41973,24.5 -2.00798,37.3022 -2.27194,50.5 -1.01,50.5 0.76006,0 0.93225,0.79816 0.48539,2.25 -0.38088,1.2375 -1.02237,3.6 -1.42553,5.25 -0.7186,2.94099 -0.75645,2.95704 -1.92412,0.81574 z M 685.41783,66.25 c 0.2836,-8.6625 0.81635,-20.7 1.18389,-26.75 0.36754,-6.05 0.60416,-15.8375 0.52582,-21.75 -0.13848,-10.4513163 0.6298,-12.9404535 2.76354,-8.9535278 1.21452,2.2693638 -0.33451,47.3364028 -1.90966,55.5587148 -0.61692,3.220354 -0.82877,7.588876 -0.47077,9.707828 C 688.21715,78.244747 687.44739,82 685.88371,82 c -0.62229,0 -0.7928,-5.764215 -0.46588,-15.75 z"
         style="fill:#de9b60" />
      <path
         inkscape:connector-curvature="0"
         id="path4148"
         d="m 721.5,369.06524 c -1.54061,-0.61178 -0.62184,-1.05081 4,-1.91138 3.3,-0.61445 9.39284,-2.25043 13.53964,-3.63552 4.14681,-1.38509 8.35745,-2.51834 9.35699,-2.51834 1.24634,0 1.62663,-0.49699 1.21036,-1.58179 C 749.27314,358.54823 749,357.40027 749,356.86719 c 0,-0.53309 -1.575,-1.62732 -3.5,-2.43164 -1.925,-0.80431 -3.5,-1.89013 -3.5,-2.41292 0,-0.52279 1.60339,-2.04006 3.56308,-3.37171 l 3.56308,-2.42117 -4.81308,-1.10723 c -5.38014,-1.23767 -34.74688,-4.11914 -42.07779,-4.12868 -2.60441,-0.003 -5.86029,-0.583 -7.23529,-1.28801 -2.95975,-1.51759 -18.71228,-1.46473 -21.58807,0.0724 -1.05156,0.56209 -7.98693,1.53714 -15.41193,2.16677 -41.85608,3.54939 -64.56929,7.4076 -73.72131,12.52276 -2.52055,1.40877 -4.82571,2.31852 -5.12256,2.02166 -0.29685,-0.29685 0.0565,-2.1885 0.78517,-4.20368 0.7287,-2.01517 2.34913,-7.74136 3.60096,-12.72486 2.75255,-10.95784 5.59477,-17.50846 9.55242,-22.01597 4.37782,-4.98606 21.52751,-16.06616 36.90532,-23.84385 11.74761,-5.94163 14.25234,-7.65859 19.29581,-13.22709 l 5.79581,-6.39915 2.64465,-16.02025 2.64464,-16.02025 -2.23866,-2.38294 c -2.08468,-2.21905 -2.15651,-2.71886 -1.0444,-7.26718 1.78613,-7.30491 3.59301,-10.27719 6.67034,-10.97255 11.85225,-2.67814 13.8368,-3.4746 16.52378,-6.63147 l 2.79197,-3.28022 -0.64306,-16.1285 c -0.4337,-10.87737 -0.30046,-16.34025 0.40924,-16.77887 0.6204,-0.38342 1.56474,1.10585 2.30083,3.62851 0.68669,2.35337 1.83365,4.63872 2.54879,5.07855 C 689.49293,188.40254 689.34005,192 687.5,192 c -1.95598,0 -1.90557,0.98295 0.12661,2.46892 1.30512,0.95433 1.40395,1.60547 0.5,3.2945 -0.61963,1.15781 -1.10832,4.72218 -1.08597,7.92084 0.0592,8.4705 2.86,11.40204 13.66874,14.30675 4.51515,1.21339 8.61872,2.7243 9.11904,3.35758 0.50031,0.63327 1.46429,3.51728 2.14216,6.4089 1.16631,4.97516 1.11386,5.35355 -0.97677,7.04644 l -2.20926,1.78895 2.12669,16.90802 c 1.16967,9.29942 2.75769,17.87107 3.52892,19.04811 4.14202,6.32152 11.32602,12.29331 18.05984,15.01244 15.43398,6.2323 37.30127,21.31306 43.86027,30.24819 3.46676,4.72268 7.63827,14.20073 7.63923,17.35703 2.7e-4,0.91666 -0.46435,1.82161 -1.03249,2.01099 -0.56815,0.18939 0.10685,1.88931 1.5,3.77762 1.39314,1.8883 2.53299,3.76854 2.53299,4.1783 0,0.40976 -2.1375,0.0815 -4.75,-0.72957 -2.6125,-0.81103 -6.10195,-1.89787 -7.75434,-2.4152 -4.75573,-1.48893 -18.53854,-3.18633 -20.32048,-2.50254 -1.40142,0.53778 -1.4212,0.74649 -0.14715,1.55221 0.80958,0.51199 2.51684,0.93779 3.79391,0.94621 3.06537,0.0202 20.27165,5.50656 26.99697,8.60817 6.68433,3.08271 6.54296,4.89725 -0.6838,8.77693 -10.26115,5.50869 -54.46525,10.93967 -62.63511,7.69545 z M 778,338 c -0.82501,-1.54155 -2.09382,-2 -5.53518,-2 -2.45565,0 -4.46482,0.43713 -4.46482,0.97141 0,1.06562 5.17298,2.79584 8.78518,2.9384 1.9829,0.0783 2.1436,-0.17437 1.21482,-1.90981 z M 683.19109,174.31574 c -0.71942,-1.31929 -1.1974,-6.66529 -1.20701,-13.5 -0.0215,-15.26859 2.05177,-71.939085 2.70051,-73.81574 0.28519,-0.825 1.16766,0.975 1.96103,4 1.19786,4.567225 1.26905,8.722313 0.41973,24.5 -2.00798,37.3022 -2.27194,50.5 -1.01,50.5 0.76006,0 0.93225,0.79816 0.48539,2.25 -0.38088,1.2375 -1.02237,3.6 -1.42553,5.25 -0.7186,2.94099 -0.75645,2.95704 -1.92412,0.81574 z M 685.41783,66.25 c 0.2836,-8.6625 0.81635,-20.7 1.18389,-26.75 0.36754,-6.05 0.60416,-15.8375 0.52582,-21.75 -0.13848,-10.4513163 0.6298,-12.9404535 2.76354,-8.9535278 1.21452,2.2693638 -0.33451,47.3364028 -1.90966,55.5587148 -0.61692,3.220354 -0.82877,7.588876 -0.47077,9.707828 C 688.21715,78.244747 687.44739,82 685.88371,82 c -0.62229,0 -0.7928,-5.764215 -0.46588,-15.75 z"
         style="fill:#aa8964" />
      <path
         inkscape:connector-curvature="0"
         id="path4146"
         d="m 721.5,369.06524 c -1.54061,-0.61178 -0.62184,-1.05081 4,-1.91138 3.3,-0.61445 9.39284,-2.25043 13.53964,-3.63552 4.14681,-1.38509 8.35745,-2.51834 9.35699,-2.51834 1.24634,0 1.62663,-0.49699 1.21036,-1.58179 C 749.27314,358.54823 749,357.40027 749,356.86719 c 0,-0.53309 -1.575,-1.62732 -3.5,-2.43164 -1.925,-0.80431 -3.5,-1.89013 -3.5,-2.41292 0,-0.52279 1.60339,-2.04006 3.56308,-3.37171 l 3.56308,-2.42117 -4.81308,-1.12387 c -2.64719,-0.61813 -8.86308,-1.535 -13.81308,-2.03751 -4.95,-0.5025 -14.4,-1.45558 -21,-2.11796 -6.6,-0.66237 -13.125,-1.66741 -14.5,-2.23341 -3.19305,-1.31437 -19.43385,-1.09036 -22.03922,0.30399 -1.08808,0.58232 -7.03688,1.49145 -13.21956,2.02029 -6.18267,0.52883 -12.36622,1.18353 -13.74122,1.45488 -1.375,0.27136 -10.36002,1.19753 -19.9667,2.05816 -18.14922,1.62594 -30.00187,3.88582 -39.01659,7.43909 -5.74179,2.26321 -6.68126,2.14493 -5.22489,-0.65776 0.52463,-1.00961 2.15178,-6.52711 3.6159,-12.26112 3.64165,-14.26196 7.34508,-20.92244 14.31699,-25.74858 9.11665,-6.31078 16.00954,-10.2844 31.77529,-18.31785 12.70372,-6.4732 15.24433,-8.15343 16.59607,-10.97582 0.87784,-1.8329 3.02307,-4.50248 4.76719,-5.93241 3.03412,-2.48756 3.27777,-3.24785 5.64015,-17.59987 3.00921,-18.28159 3.00994,-18.32466 0.35905,-21.1464 -1.8116,-1.92837 -1.97362,-2.70059 -1.06252,-5.06445 0.59126,-1.53403 1.36725,-4.2669 1.72443,-6.07303 0.81036,-4.09768 3.07473,-5.52817 12.18071,-7.69503 5.99363,-1.42624 7.63297,-2.27551 9.75,-5.05108 2.24546,-2.94396 2.54492,-4.29558 2.54492,-11.48662 0,-6.01199 0.32319,-8.04233 1.23197,-7.7394 0.86659,0.28886 1.14118,2.6121 0.92586,7.83333 -0.39306,9.53118 1.87012,13.44067 9.19263,15.87967 3.90633,1.30112 5.13152,2.28402 6.29434,5.04955 1.81103,4.30718 4.1736,6.9624 7.23718,8.13365 2.15145,0.82253 2.23768,1.07757 0.89103,2.63524 -2.30355,2.6645 -2.78435,6.15345 -1.50643,10.93146 0.88745,3.31808 0.88903,4.81429 0.007,6.2273 -0.63883,1.02294 -1.25225,4.96748 -1.36316,8.76565 -0.1901,6.51055 0.0146,7.2175 3.57674,12.35296 2.07812,2.99596 4.39373,6.15763 5.14582,7.02594 0.75209,0.86831 1.36743,2.34724 1.36743,3.28652 0,1.18539 3.2883,3.28162 10.75,6.8529 11.32608,5.42083 19.13641,10.29095 25.72465,16.04058 l 3.97466,3.46873 -5.97466,1.65483 c -7.63391,2.11441 -8.90494,2.85496 -9.28645,5.41069 -0.32332,2.16588 2.08764,6.80672 4.63505,8.92198 0.80475,0.66823 1.51124,2.90573 1.56997,4.97222 0.0994,3.49881 0.41633,3.87582 4.60678,5.48065 2.475,0.94787 5.9625,1.74787 7.75,1.77778 1.7875,0.0299 3.25035,0.39188 3.25077,0.80438 4.3e-4,0.4125 -4.38707,0.59849 -9.75,0.41331 -11.34648,-0.39178 -11.60885,0.83747 -0.73456,3.44151 24.51238,5.86992 35.86972,10.13403 35.27822,13.24518 -0.17253,0.9075 -2.72323,2.94354 -5.6682,4.52454 -10.43679,5.60295 -53.38607,10.96284 -61.62623,7.6907 z M 744,333 c 0,-0.55 -0.675,-1 -1.5,-1 -0.825,0 -1.5,0.45 -1.5,1 0,0.55 0.675,1 1.5,1 0.825,0 1.5,-0.45 1.5,-1 z M 683,188.45578 c 0,-4.05866 0.12705,-4.11454 1.84353,-0.81079 0.87442,1.68302 0.79591,2.40936 -0.36454,3.37245 C 683.21793,192.06403 683,191.68657 683,188.45578 Z m 0.115,-43.14676 c -0.0634,-4.51423 0.33388,-8.46841 0.885,-8.80902 1.21171,-0.74888 1.247,7.24861 0.0574,13 -0.71191,3.44181 -0.84342,2.85696 -0.94237,-4.19098 z M 684,126.82478 c 0,-14.32044 1.31078,-34.939819 2.13779,-33.628762 0.4524,0.71719 0.60543,5.353982 0.34006,10.303982 -0.26536,4.95 -0.71772,13.69878 -1.00523,19.44173 C 684.85603,135.25776 684,137.51497 684,126.82478 Z M 686.15789,77 c 0,-1.375 0.22698,-1.9375 0.50439,-1.25 0.27741,0.6875 0.27741,1.8125 0,2.5 -0.27741,0.6875 -0.50439,0.125 -0.50439,-1.25 z m -0.12748,-19.190983 c -0.0169,-3.168375 0.4681,-5.999079 1.09422,-6.386045 0.73806,-0.456143 0.95527,-3.062199 0.63191,-7.581524 -0.29867,-4.174337 -0.0883,-7.136442 0.5343,-7.521195 1.28935,-0.796864 0.0702,23.245373 -1.29731,25.584434 -0.65638,1.122666 -0.94172,-0.09077 -0.96312,-4.09567 z m 2.06927,-40.5 C 688.1545,16.314058 688.55965,14.375 689,13 c 0.71916,-2.245591 0.81078,-2.124393 0.90032,1.190983 C 689.95514,16.221024 689.55,18.160081 689,18.5 c -0.55,0.339919 -0.95514,-0.196024 -0.90032,-1.190983 z"
         style="fill:#9c6d47" />
      <path
         inkscape:connector-curvature="0"
         id="path4144"
         d="m 738.42775,367.1169 c 0.29461,-0.47669 4.25639,-1.3961 8.80395,-2.04314 20.79875,-2.9593 34.13665,-5.71048 38.8869,-8.02112 1.94609,-0.94662 1.83301,-0.69239 -0.6186,1.39079 -1.65,1.40204 -5.025,3.22267 -7.5,4.04584 -8.08849,2.69018 -40.73427,6.50783 -39.57225,4.62763 z M 583,351.3461 c 0,-0.35965 1.575,-3.47026 3.5,-6.91248 2.13171,-3.81186 3.5,-7.61991 3.5,-9.74077 0,-1.9152 0.92132,-6.46508 2.04739,-10.11084 1.9404,-6.28232 2.41143,-6.89345 9.01481,-11.69635 3.83209,-2.78722 8.87327,-6.12286 11.20262,-7.41252 5.97299,-3.30698 29.58883,-14.89725 33.48518,-16.43398 2.53755,-1.00081 3.25,-1.86836 3.25,-3.95753 0,-1.78666 1.27923,-3.92487 3.84993,-6.43509 3.88237,-3.79103 5.1371,-7.70474 6.61927,-20.64654 1.93262,-16.87495 1.95667,-15.91778 -0.46473,-18.49524 -1.95126,-2.07702 -2.12473,-2.82813 -1.20453,-5.21561 0.59126,-1.53403 1.36725,-4.2669 1.72443,-6.07303 0.81036,-4.09768 3.07473,-5.52817 12.18071,-7.69503 5.99363,-1.42624 7.63297,-2.27551 9.75,-5.05108 2.24546,-2.94396 2.54492,-4.29558 2.54492,-11.48662 0,-6.01199 0.32319,-8.04233 1.23197,-7.7394 0.86659,0.28886 1.14118,2.6121 0.92586,7.83333 -0.39306,9.53118 1.87012,13.44067 9.19263,15.87967 3.90633,1.30112 5.13152,2.28402 6.29434,5.04955 1.81217,4.30989 4.17387,6.96251 7.24389,8.1362 2.8622,1.09425 1.96449,2.35726 -1.67548,2.35726 -1.96225,0 -2.77455,0.62714 -3.23814,2.5 -0.44209,1.78603 -1.21705,2.43619 -2.71354,2.27657 -1.72418,-0.18391 -2.21547,0.49134 -2.7774,3.81738 -0.76015,4.49925 -0.33383,5.44609 2.04169,4.53451 1.0536,-0.4043 1.40088,-1.28403 1.00245,-2.53938 -0.33529,-1.05642 -0.17241,-2.19098 0.36195,-2.52123 1.58101,-0.97712 2.4281,1.44997 1.31841,3.7775 -0.565,1.18506 -1.29766,2.9909 -1.62814,4.01298 -0.56414,1.74476 -0.75304,1.75863 -3.09068,0.22695 C 696.20074,250.08543 696,250.0844 696,251.57258 c 0,0.89027 0.95112,2.95441 2.1136,4.58696 l 2.11361,2.96828 -2.14165,0.56006 c -2.19721,0.57458 -2.19649,1.12761 0.009,7.02505 0.45519,1.21712 2.60645,3.33586 4.78057,4.70832 7.48687,4.72626 8.55755,9.67907 2.42511,11.21821 -2.59826,0.65212 -2.57613,0.68948 1.34035,2.26181 2.19023,0.8793 5.19729,2.5676 6.68236,3.75177 1.48506,1.18417 4.97942,2.69984 7.76524,3.36815 2.78582,0.6683 5.30374,1.83694 5.59539,2.59696 0.29165,0.76002 1.30368,1.38185 2.24896,1.38185 1.89989,0 6.06733,3.96959 6.06733,5.77927 0,0.6327 1.0125,1.69446 2.25,2.35948 l 2.25,1.20911 -2.64081,0.71039 c -1.45245,0.39071 -7.18995,1.03598 -12.75,1.43394 C 716.91642,308.007 714,308.58649 714,309.50088 c 0,0.70683 -0.7875,1.59206 -1.75,1.96718 -2.84358,1.10825 -37.95858,1.70641 -41.57386,0.70819 -4.66684,-1.28858 -22.3916,1.24717 -25.68181,3.6741 -1.37811,1.01653 -4.97811,2.15531 -8,2.53062 -3.02188,0.37531 -6.39433,0.85563 -7.49433,1.06737 -1.1,0.21175 -2.5625,0.42249 -3.25,0.46833 -1.5931,0.1062 -1.57097,5.08688 0.0318,7.15592 2.38172,3.0746 5.062,3.92625 6.95761,2.21075 1.61329,-1.46001 1.85325,-1.30582 3.27923,2.10702 1.5332,3.66947 1.55848,3.68171 7.25996,3.51449 6.2971,-0.1847 26.17236,1.71278 27.04119,2.5816 1.45529,1.4553 -2.31055,2.44838 -12.81979,3.38065 -38.405,3.40692 -57.0239,5.95292 -67.5,9.23013 -6.60228,2.06538 -7.5,2.21486 -7.5,1.24887 z m 99.68311,-85.5336 c -0.31922,-0.79773 -0.55618,-0.56078 -0.60416,0.60417 -0.0434,1.05416 0.19293,1.64479 0.52522,1.3125 0.33229,-0.33229 0.36781,-1.1948 0.0789,-1.91667 z m -1.09469,-5.61372 c -0.7474,-0.16568 -1.61173,-1.56535 -1.92074,-3.11038 -0.30901,-1.54504 -1.71065,-4.17445 -3.11476,-5.84313 C 675.14882,249.57658 674,247.76623 674,247.22228 c 0,-1.78645 -4.2058,-2.13354 -6.62727,-0.54693 -2.2096,1.44778 -3.35889,5.32465 -1.57849,5.32465 0.43683,0 2.72457,1.8 5.08385,4 2.35929,2.2 5.09678,4 6.08332,4 0.98653,0 2.37158,0.6963 3.07787,1.54733 1.02493,1.23496 1.44809,1.28543 2.09612,0.25 0.50408,-0.80544 0.29669,-1.41154 -0.54698,-1.59855 z M 717,340.94896 c -2.475,-0.44039 -6.75,-0.84021 -9.5,-0.88849 -5.62676,-0.0988 -9.5,-0.92873 -9.5,-2.03564 0,-1.5989 15.15156,-3.30823 23.58095,-2.6603 8.97733,0.69005 14.00899,2.22831 16.29149,4.98057 1.26059,1.52002 0.6493,1.6447 -7.5,1.52973 C 725.4926,341.80599 719.475,341.38935 717,340.94896 Z M 686,324 c -0.825,-0.53316 -2.7375,-0.97627 -4.25,-0.98469 -2.25493,-0.0125 -2.75,-0.46075 -2.75,-2.48963 0,-3.45683 4.29519,-5.52836 10.05325,-4.84861 2.44571,0.28873 5.43471,0.48657 6.64221,0.43966 2.57169,-0.0999 9.78473,6.29728 8.83432,7.83509 C 703.71199,325.27503 688.03604,325.31579 686,324 Z m -3,-135.54422 c 0,-4.05866 0.12705,-4.11454 1.84353,-0.81079 0.87442,1.68302 0.79591,2.40936 -0.36454,3.37245 C 683.21793,192.06403 683,191.68657 683,188.45578 Z m 0.115,-43.14676 c -0.0634,-4.51423 0.33388,-8.46841 0.885,-8.80902 1.21171,-0.74888 1.247,7.24861 0.0574,13 -0.71191,3.44181 -0.84342,2.85696 -0.94237,-4.19098 z M 684,126.82478 c 0,-14.32044 1.31078,-34.939819 2.13779,-33.628762 0.4524,0.71719 0.60543,5.353982 0.34006,10.303982 -0.26536,4.95 -0.71772,13.69878 -1.00523,19.44173 C 684.85603,135.25776 684,137.51497 684,126.82478 Z M 686.15789,77 c 0,-1.375 0.22698,-1.9375 0.50439,-1.25 0.27741,0.6875 0.27741,1.8125 0,2.5 -0.27741,0.6875 -0.50439,0.125 -0.50439,-1.25 z m -0.12748,-19.190983 c -0.0169,-3.168375 0.4681,-5.999079 1.09422,-6.386045 0.73806,-0.456143 0.95527,-3.062199 0.63191,-7.581524 -0.29867,-4.174337 -0.0883,-7.136442 0.5343,-7.521195 1.28935,-0.796864 0.0702,23.245373 -1.29731,25.584434 -0.65638,1.122666 -0.94172,-0.09077 -0.96312,-4.09567 z m 2.06927,-40.5 C 688.1545,16.314058 688.55965,14.375 689,13 c 0.71916,-2.245591 0.81078,-2.124393 0.90032,1.190983 C 689.95514,16.221024 689.55,18.160081 689,18.5 c -0.55,0.339919 -0.95514,-0.196024 -0.90032,-1.190983 z"
         style="fill:#905e3b" />
      <path
         inkscape:connector-curvature="0"
         id="path4142"
         d="m 584,349.62244 c 0,-1.93239 1.67756,-2.95369 8,-4.87041 15.39583,-4.66742 25.89175,-5.99567 51,-6.45399 28.65947,-0.52314 30.85901,0.68551 5.66079,3.11062 -23.87572,2.29783 -52.97276,6.36127 -57.93824,8.09116 -5.2844,1.841 -6.72255,1.86724 -6.72255,0.12262 z m 129.83091,-9.52978 c -6.97262,-0.61963 -10.27164,-2.00848 -5.24758,-2.20917 1.60417,-0.0641 6.51667,-0.28482 10.91667,-0.49053 7.6575,-0.35802 13.5,0.82275 13.5,2.72836 0,0.94334 -8.37222,0.93082 -19.16909,-0.0287 z M 593.51495,324.02419 c -2.19333,-3.54888 5.62515,-11.28446 18.74987,-18.55105 5.97299,-3.30698 29.58883,-14.89725 33.48518,-16.43398 2.50055,-0.98622 3.25,-1.87924 3.25,-3.87263 0,-1.6877 1.43086,-4.04876 4.10474,-6.77325 2.28449,-2.32772 4.39588,-5.60597 4.76128,-7.39259 0.55008,-2.68956 1.36672,-3.45024 5.03552,-4.69041 4.8456,-1.63798 10.59429,-1.06651 11.43994,1.13722 0.66901,1.74341 10.06946,2.93061 14.09759,1.78042 2.89933,-0.82788 10.53273,1.31215 16.31093,4.57278 2.44499,1.3797 3.00169,3.17929 1,3.23257 -0.6875,0.0183 -2.32951,0.93219 -3.64891,2.03087 -2.28229,1.9005 -2.31053,2.06223 -0.58083,3.32702 0.99994,0.73117 3.42945,1.90605 5.39891,2.61085 1.96946,0.70479 4.79201,2.29146 6.27235,3.52594 1.48033,1.23448 5.00236,2.79887 7.82672,3.47643 2.82436,0.67755 5.37382,1.85375 5.66547,2.61377 0.29165,0.76002 1.30368,1.38185 2.24896,1.38185 1.6716,0 6.06733,3.88724 6.06733,5.36548 0,0.40511 -1.4625,1.33094 -3.25,2.0574 -2.36026,0.95923 -10.23105,1.36237 -28.75,1.47257 -36.3088,0.21606 -62.81407,3.16027 -69.86814,7.76096 -1.74949,1.14102 -3.7088,1.37869 -7.5,0.90975 -6.65856,-0.8236 -12.53025,0.97336 -20.51886,6.27954 -6.92073,4.59687 -10.53477,5.89892 -11.59805,4.17849 z M 670.5,281 c 0.78687,-1.27319 -1.52988,-1.27319 -3.5,0 -1.21948,0.78809 -1.09025,0.97224 0.69098,0.98469 1.20504,0.008 2.4691,-0.43469 2.80902,-0.98469 z m 12.75,38.75 c 0.22917,-0.6875 0.94167,-1.205 1.58333,-1.15 0.64167,0.055 2.31823,0.1675 3.72569,0.25 3.84301,0.22526 1.87229,2.15 -2.20137,2.15 -2.37501,0 -3.38844,-0.40763 -3.10765,-1.25 z m 0.92189,-61.79166 C 680.54795,255.75449 677,249.36368 677,245.03984 677,243.12725 676.49012,242 675.625,242 c -0.75625,0 -2.75926,-0.27685 -4.45113,-0.61523 -2.60738,-0.52147 -3.54072,-0.10656 -6.125,2.72287 -3.74778,4.10329 -3.85428,7.15003 -0.39319,11.248 l 2.65568,3.14436 -3.28284,0.32284 c -4.499,0.44245 -5.4143,-0.77069 -4.1142,-5.45295 1.74544,-6.28617 1.35782,-11.4513 -1.05186,-14.01629 -1.8116,-1.92837 -1.97362,-2.70059 -1.06252,-5.06445 0.59126,-1.53403 1.36725,-4.2669 1.72443,-6.07303 0.81036,-4.09768 3.07473,-5.52817 12.18071,-7.69503 5.99363,-1.42624 7.63297,-2.27551 9.75,-5.05108 2.24546,-2.94396 2.54492,-4.29558 2.54492,-11.48662 0,-6.01199 0.32319,-8.04233 1.23197,-7.7394 0.86659,0.28886 1.14118,2.6121 0.92586,7.83333 -0.39306,9.53118 1.87012,13.44067 9.19263,15.87967 3.90633,1.30112 5.13152,2.28402 6.29434,5.04955 1.79865,4.27774 4.17064,6.96122 7.16537,8.10635 1.2706,0.48585 2.05615,1.29438 1.74568,1.79674 -0.3306,0.53492 -1.83129,0.43522 -3.6218,-0.24063 -2.60769,-0.98429 -3.59973,-0.8454 -6.74568,0.94441 -2.0286,1.15412 -4.4869,3.62574 -5.46289,5.49249 -1.93246,3.69618 -3.07337,3.81919 -6.4246,0.69271 C 685.76994,239.4374 683,240.01085 683,242.89604 c 0,1.78637 2.10969,3.96 6.40969,6.60396 0.96356,0.59247 1.72089,2.57294 1.85833,4.85971 0.30116,5.01079 -2.46626,6.41422 -7.09613,3.59863 z M 683,188.45578 c 0,-4.05866 0.12705,-4.11454 1.84353,-0.81079 0.87442,1.68302 0.79591,2.40936 -0.36454,3.37245 C 683.21793,192.06403 683,191.68657 683,188.45578 Z m 0.115,-43.14676 c -0.0634,-4.51423 0.33388,-8.46841 0.885,-8.80902 1.21171,-0.74888 1.247,7.24861 0.0574,13 -0.71191,3.44181 -0.84342,2.85696 -0.94237,-4.19098 z M 684,126.82478 c 0,-14.32044 1.31078,-34.939819 2.13779,-33.628762 0.4524,0.71719 0.60543,5.353982 0.34006,10.303982 -0.26536,4.95 -0.71772,13.69878 -1.00523,19.44173 C 684.85603,135.25776 684,137.51497 684,126.82478 Z M 686.15789,77 c 0,-1.375 0.22698,-1.9375 0.50439,-1.25 0.27741,0.6875 0.27741,1.8125 0,2.5 -0.27741,0.6875 -0.50439,0.125 -0.50439,-1.25 z m -0.12748,-19.190983 c -0.0169,-3.168375 0.4681,-5.999079 1.09422,-6.386045 0.73806,-0.456143 0.95527,-3.062199 0.63191,-7.581524 -0.29867,-4.174337 -0.0883,-7.136442 0.5343,-7.521195 1.28935,-0.796864 0.0702,23.245373 -1.29731,25.584434 -0.65638,1.122666 -0.94172,-0.09077 -0.96312,-4.09567 z m 2.06927,-40.5 C 688.1545,16.314058 688.55965,14.375 689,13 c 0.71916,-2.245591 0.81078,-2.124393 0.90032,1.190983 C 689.95514,16.221024 689.55,18.160081 689,18.5 c -0.55,0.339919 -0.95514,-0.196024 -0.90032,-1.190983 z"
         style="fill:#6e624a" />
      <path
         inkscape:connector-curvature="0"
         id="path4140"
         d="m 584.7905,349.75993 c 2.49657,-3.02269 11.82836,-6.57445 23.2095,-8.83375 9.51575,-1.88899 15.64103,-2.35015 35.5,-2.67275 14.93356,-0.24259 23.62223,-0.0363 23,0.54616 -0.55,0.51481 -8.425,1.67297 -17.5,2.57369 -39.91093,3.96125 -43.54479,4.49933 -63,9.32856 -2.17865,0.54079 -2.33412,0.41971 -1.2095,-0.94191 z m 129.04041,-9.66727 c -6.97262,-0.61963 -10.27164,-2.00848 -5.24758,-2.20917 1.60417,-0.0641 6.51667,-0.28482 10.91667,-0.49053 7.6575,-0.35802 13.5,0.82275 13.5,2.72836 0,0.94334 -8.37222,0.93082 -19.16909,-0.0287 z M 596.35866,322.49228 c -1.04892,-2.73345 2.24668,-5.92579 11.25419,-10.90155 4.88793,-2.70011 9.64021,-5.83852 10.56061,-6.97426 1.62178,-2.00122 1.7355,-2.00883 3.68284,-0.24652 1.55655,1.40866 2.75692,1.64299 5.32654,1.0398 1.82444,-0.42826 4.00238,-0.6847 4.83987,-0.56985 0.83749,0.11484 3.06242,-0.92715 4.94428,-2.31555 1.88186,-1.38839 4.28625,-2.52435 5.34308,-2.52435 1.05682,0 4.13634,-0.78664 6.84337,-1.74809 4.33879,-1.541 5.03406,-1.57062 5.8689,-0.25 0.60268,0.95336 0.9526,1.05291 0.96235,0.27377 0.0397,-3.17376 12.17784,-5.66985 26.74089,-5.499 8.28837,0.0972 10.52591,0.85557 9.74882,3.30397 -0.70092,2.20842 -0.17137,2.36273 2.74747,0.80061 1.75069,-0.93694 2.36862,-0.74989 3.80252,1.15108 1.25941,1.66963 2.33217,2.10768 4.057,1.65663 1.38637,-0.36255 2.97307,-0.0497 3.88173,0.76525 0.84529,0.75815 2.85218,1.5286 4.45976,1.71212 1.60759,0.18351 3.08881,0.83985 3.29162,1.45852 0.2632,0.80289 -5.15308,1.17682 -18.92288,1.30639 -30.07876,0.28303 -56.18369,3.50144 -62.65976,7.72516 -1.74949,1.14102 -3.7088,1.37869 -7.5,0.90975 -6.65924,-0.82369 -12.53034,0.97341 -20.52202,6.28163 -6.87259,4.5649 -7.89561,4.87405 -8.75118,2.64449 z M 683.25,319.75 c 0.22917,-0.6875 0.94167,-1.205 1.58333,-1.15 0.64167,0.055 2.31823,0.1675 3.72569,0.25 3.84301,0.22526 1.87229,2.15 -2.20137,2.15 -2.37501,0 -3.38844,-0.40763 -3.10765,-1.25 z M 652,282.18709 c 0,-0.4471 1.32717,-2.08442 2.94927,-3.63849 2.11289,-2.02427 3.03455,-3.95093 3.25,-6.79382 0.28126,-3.71129 0.58501,-4.06396 4.69098,-5.44649 4.83624,-1.62842 10.60496,-1.06613 11.44205,1.11529 0.69579,1.8132 9.55853,2.97521 13.80448,1.80993 4.30452,-1.18136 9.59488,0.99898 13.32192,5.49045 l 2.67527,3.22397 -3.31699,2.02229 c -1.92778,1.17533 -5.20165,2.0601 -7.81698,2.11254 -21.73058,0.43577 -22.49757,0.40537 -22.23389,-0.8811 0.27629,-1.34796 -1.29153,-1.23579 -12.06533,0.8633 C 652.83197,283.20839 652,283.22355 652,282.18709 Z m 32.17189,-24.22875 C 680.54795,255.75449 677,249.36368 677,245.03984 677,243.12725 676.49012,242 675.625,242 c -0.75625,0 -2.75926,-0.27685 -4.45113,-0.61523 -2.60738,-0.52147 -3.54072,-0.10656 -6.125,2.72287 L 662,247.44572 l 0,-2.90841 c 0,-1.59962 -0.95693,-3.92701 -2.12651,-5.17198 -1.16959,-1.24496 -1.86808,-2.93706 -1.5522,-3.76021 C 658.95592,233.95129 667.79682,231 672.1164,231 c 1.51437,0 3.86491,-0.42259 5.22342,-0.9391 1.62849,-0.61915 5.65383,-0.4833 11.8151,0.39875 13.79407,1.97476 15.10537,2.77395 9.74597,5.93982 -1.70451,1.00688 -3.74313,3.37205 -4.53027,5.25593 -1.5048,3.60149 -2.13422,3.60868 -6.06974,0.0693 C 685.75817,239.43794 683,240.0474 683,242.89602 c 0,1.78637 2.10969,3.96 6.40969,6.60396 0.96356,0.59247 1.72089,2.57294 1.85833,4.85971 0.30116,5.01079 -2.46626,6.41422 -7.09613,3.59863 z M 660.01365,257.25 c 0.008,-0.9625 0.28418,-2.75937 0.61481,-3.99304 0.57584,-2.14855 0.72269,-2.0901 3.48635,1.38751 1.58685,1.9968 2.88519,3.79366 2.88519,3.99303 0,0.19938 -1.575,0.3625 -3.5,0.3625 -2.67187,0 -3.49677,-0.41407 -3.48635,-1.75 z M 676,222 c -0.86059,-0.55616 -1.00203,-0.9759 -0.33179,-0.98469 0.64252,-0.008 1.88512,-0.29041 2.76134,-0.62665 1.16604,-0.44745 1.42737,-0.17937 0.9748,1 C 678.69322,223.24184 678.08939,223.35027 676,222 Z"
         style="fill:#6e523a" />
    </g>
    <path
       sodipodi:nodetypes="cccssc"
       inkscape:connector-curvature="0"
       id="path4158"
       d="m 447.22796,1123.1669 c 13.20957,51.8408 20.50912,50.1465 45.64409,56.0515 43.14499,-14.4465 37.10408,-38.2424 36.99285,-55.1243 0.94607,-3.8355 4.28059,-12.8178 -1.97876,-16.2115 -16.88529,-9.1549 -57.46756,-9.3447 -75.467,1.7729 -4.06401,2.5102 -2.97108,9.9483 -5.19118,13.5114 z"
       style="fill:#f0f594;fill-opacity:1;fill-rule:evenodd;stroke:#000000;stroke-width:0;stroke-linecap:butt;stroke-linejoin:miter;stroke-miterlimit:4;stroke-dasharray:none;stroke-opacity:1" />
    <path
       sodipodi:nodetypes="ccc"
       inkscape:connector-curvature="0"
       id="path4160"
       d="m 458.98806,1183.0647 c 1.44634,7.7264 15.52768,19.786 22.09709,5.682 -11.14352,-8.9293 -8.61401,-7.811 -22.09709,-5.682 z"
       style="fill:#f0f594;fill-opacity:1;fill-rule:evenodd;stroke:#000000;stroke-width:0;stroke-linecap:butt;stroke-linejoin:miter;stroke-miterlimit:4;stroke-dasharray:none;stroke-opacity:1" />
    <path
       sodipodi:nodetypes="cccc"
       inkscape:connector-curvature="0"
       id="path4162"
       d="m 493.82347,1185.5529 6.23918,-3.1196 3.60239,6.2763 c -1.73512,10.8283 -18.24332,13.6467 -9.84157,-3.1567 z"
       style="fill:#f0f594;fill-opacity:1;fill-rule:evenodd;stroke:#000000;stroke-width:0;stroke-linecap:butt;stroke-linejoin:miter;stroke-miterlimit:4;stroke-dasharray:none;stroke-opacity:1" />
  </g>
</svg>
